<?xml version="1.0" encoding="UTF-8" standalone="no"?>
<!-- Created with Inkscape (http://www.inkscape.org/) -->

<svg
   xmlns:dc="http://purl.org/dc/elements/1.1/"
   xmlns:cc="http://creativecommons.org/ns#"
   xmlns:rdf="http://www.w3.org/1999/02/22-rdf-syntax-ns#"
   xmlns:svg="http://www.w3.org/2000/svg"
   xmlns="http://www.w3.org/2000/svg"
   xmlns:sodipodi="http://sodipodi.sourceforge.net/DTD/sodipodi-0.dtd"
   xmlns:inkscape="http://www.inkscape.org/namespaces/inkscape"
   width="150mm"
   height="150mm"
   viewBox="0 0 531.49611 531.49605"
   id="svg2"
   version="1.1"
   inkscape:version="0.91 r"
   sodipodi:docname="super.svg"
   inkscape:export-filename="/home/gennaro/Desktop/BdB_app_data/keys/super.png"
   inkscape:export-xdpi="230"
   inkscape:export-ydpi="230">
  <defs
     id="defs4" />
  <sodipodi:namedview
     id="base"
     pagecolor="#ffffff"
     bordercolor="#666666"
     borderopacity="1.0"
     inkscape:pageopacity="0.0"
     inkscape:pageshadow="2"
     inkscape:zoom="1.6839259"
     inkscape:cx="153.80724"
     inkscape:cy="265.74803"
     inkscape:document-units="px"
     inkscape:current-layer="layer1"
     showgrid="false"
     inkscape:window-width="1615"
     inkscape:window-height="1026"
     inkscape:window-x="1431"
     inkscape:window-y="24"
     inkscape:window-maximized="1" />
  <metadata
     id="metadata7">
    <rdf:RDF>
      <cc:Work
         rdf:about="">
        <dc:format>image/svg+xml</dc:format>
        <dc:type
           rdf:resource="http://purl.org/dc/dcmitype/StillImage" />
        <dc:title />
      </cc:Work>
    </rdf:RDF>
  </metadata>
  <g
     inkscape:label="Layer 1"
     inkscape:groupmode="layer"
     id="layer1"
     transform="translate(0,-520.86621)">
    <path
       style="fill:#e95420;fill-opacity:1"
       d="m 232.76936,895.92059 c -4.82807,-3.9109 -5.4588,-6.9673 -5.4588,-26.4526 l 0,-18.83215 -9.91072,0 c -13.8479,0 -13.83876,0.0135 -13.84148,-20.40179 -0.001,-9.06026 -0.37323,-33.77009 -0.82671,-54.91072 l -0.82452,-38.4375 63.32672,0 63.32672,0 0,54.09687 c 0,46.93882 -0.25747,54.46448 -1.94587,56.87501 -1.73312,2.47437 -3.03157,2.77813 -11.87501,2.77813 l -9.92912,0 0,17.54015 c 0,18.968 -1.22061,24.2965 -6.39609,27.9215 -3.40839,2.3873 -9.65658,2.6069 -12.41128,0.4361 -5.60787,-4.4191 -6.19263,-6.9499 -6.19263,-26.8009 l 0,-19.09685 -14.37501,0 -14.375,0 0,20.09615 0,20.0962 -3.65385,3.6538 c -4.25464,4.2547 -10.41358,4.86 -14.63735,1.4386 z m -56.70881,-79.1694 c -7.31461,-2.87009 -7.44188,-3.57733 -7.4722,-41.52401 l -0.0278,-34.78366 3.65385,-3.65384 c 2.86562,-2.86563 4.77395,-3.65385 8.84615,-3.65385 4.07221,0 5.98054,0.78822 8.84616,3.65385 l 3.65385,3.65384 0,33.90824 c 0,37.60753 -0.40902,39.87484 -7.64855,42.39855 -4.67556,1.62992 -5.69953,1.63 -9.85146,8.8e-4 z m 169.37502,0.26116 c -1.375,-0.59479 -3.625,-2.33076 -5,-3.85772 -2.33641,-2.59462 -2.52514,-4.83317 -2.8841,-34.21004 -0.21125,-17.28857 -0.057,-33.19884 0.34286,-35.35616 1.91024,-10.30696 14.19252,-14.11208 21.36988,-6.62052 l 3.67137,3.83208 0,34.88951 0,34.88953 -3.19219,3.19218 c -3.43935,3.43934 -10.27168,4.98707 -14.30782,3.24114 z M 204.22084,721.57333 c 1.69677,-8.0253 5.39888,-17.0847 9.29682,-22.75016 3.71569,-5.40057 15.23428,-15.68735 17.56586,-15.68735 0.57666,0 1.79891,-0.75044 2.71613,-1.66766 3.02598,-3.02598 19.78783,-6.40114 31.63591,-6.3702 10.42762,0.0272 27.94627,3.29766 31.25001,5.83384 0.6875,0.52777 4.0625,2.83678 7.5,5.13113 11.42126,7.62309 19.86916,20.73473 22.54315,34.98831 l 0.86008,4.58459 -62.11344,0 -62.11344,0 0.85892,-4.0625 z m 40.68666,-15.42931 c 2.20928,-2.66202 2.10346,-10.09351 -0.17618,-12.37315 -1.00608,-1.00608 -3.51809,-2.16701 -5.58223,-2.57984 -8.05057,-1.61012 -13.99188,8.61229 -8.5198,14.65887 2.66739,2.94743 11.91801,3.13799 14.27821,0.29412 z m 54.40344,1.03516 c 0.75645,-0.50509 2.06918,-2.23501 2.91718,-3.84426 2.02006,-3.83353 -0.13993,-9.32959 -4.43585,-11.28695 -4.33919,-1.97706 -5.92102,-1.78463 -9.68813,1.17858 -3.86629,3.04122 -4.45022,9.05934 -1.22484,12.62335 2.10224,2.32294 9.7231,3.13782 12.43164,1.32928 z"
       id="path4147"
       inkscape:connector-curvature="0" />
  </g>
</svg>
